<svg width="18" height="17" viewBox="0 0 18 17" fill="none" xmlns="http://www.w3.org/2000/svg">
<path d="M7.78786 0.954519C8.0928 0.348494 8.97387 0.348493 9.27881 0.954518L11.2717 4.91518C11.3928 5.15583 11.6269 5.32263 11.8977 5.36123L16.354 5.99635C17.0358 6.09353 17.3081 6.9154 16.8147 7.38713L13.5901 10.4701C13.3942 10.6574 13.3048 10.9273 13.351 11.1918L14.1122 15.545C14.2287 16.2111 13.5159 16.719 12.906 16.4045L8.92018 14.3492C8.678 14.2243 8.38867 14.2243 8.14649 14.3492L4.16064 16.4045C3.55076 16.719 2.83796 16.2111 2.95444 15.545L3.71566 11.1918C3.76192 10.9273 3.67251 10.6574 3.47658 10.4701L0.251957 7.38713C-0.241445 6.9154 0.0308211 6.09353 0.712686 5.99635L5.169 5.36123C5.43977 5.32263 5.67384 5.15583 5.79493 4.91518L7.78786 0.954519Z" fill="#FFBE41"/>
<path d="M7.78786 0.954519C8.0928 0.348494 8.97387 0.348493 9.27881 0.954518L11.2717 4.91518C11.3928 5.15583 11.6269 5.32263 11.8977 5.36123L16.354 5.99635C17.0358 6.09353 17.3081 6.9154 16.8147 7.38713L13.5901 10.4701C13.3942 10.6574 13.3048 10.9273 13.351 11.1918L14.1122 15.545C14.2287 16.2111 13.5159 16.719 12.906 16.4045L8.92018 14.3492C8.678 14.2243 8.38867 14.2243 8.14649 14.3492L4.16064 16.4045C3.55076 16.719 2.83796 16.2111 2.95444 15.545L3.71566 11.1918C3.76192 10.9273 3.67251 10.6574 3.47658 10.4701L0.251957 7.38713C-0.241445 6.9154 0.0308211 6.09353 0.712686 5.99635L5.169 5.36123C5.43977 5.32263 5.67384 5.15583 5.79493 4.91518L7.78786 0.954519Z" fill="#FFBE41"/>
<path d="M7.78786 0.954519C8.0928 0.348494 8.97387 0.348493 9.27881 0.954518L11.2717 4.91518C11.3928 5.15583 11.6269 5.32263 11.8977 5.36123L16.354 5.99635C17.0358 6.09353 17.3081 6.9154 16.8147 7.38713L13.5901 10.4701C13.3942 10.6574 13.3048 10.9273 13.351 11.1918L14.1122 15.545C14.2287 16.2111 13.5159 16.719 12.906 16.4045L8.92018 14.3492C8.678 14.2243 8.38867 14.2243 8.14649 14.3492L4.16064 16.4045C3.55076 16.719 2.83796 16.2111 2.95444 15.545L3.71566 11.1918C3.76192 10.9273 3.67251 10.6574 3.47658 10.4701L0.251957 7.38713C-0.241445 6.9154 0.0308211 6.09353 0.712686 5.99635L5.169 5.36123C5.43977 5.32263 5.67384 5.15583 5.79493 4.91518L7.78786 0.954519Z" fill="#FFBE41"/>
<path d="M7.78786 0.954519C8.0928 0.348494 8.97387 0.348493 9.27881 0.954518L11.2717 4.91518C11.3928 5.15583 11.6269 5.32263 11.8977 5.36123L16.354 5.99635C17.0358 6.09353 17.3081 6.9154 16.8147 7.38713L13.5901 10.4701C13.3942 10.6574 13.3048 10.9273 13.351 11.1918L14.1122 15.545C14.2287 16.2111 13.5159 16.719 12.906 16.4045L8.92018 14.3492C8.678 14.2243 8.38867 14.2243 8.14649 14.3492L4.16064 16.4045C3.55076 16.719 2.83796 16.2111 2.95444 15.545L3.71566 11.1918C3.76192 10.9273 3.67251 10.6574 3.47658 10.4701L0.251957 7.38713C-0.241445 6.9154 0.0308211 6.09353 0.712686 5.99635L5.169 5.36123C5.43977 5.32263 5.67384 5.15583 5.79493 4.91518L7.78786 0.954519Z" fill="#FFBE41"/>
<path d="M7.78786 0.954519C8.0928 0.348494 8.97387 0.348493 9.27881 0.954518L11.2717 4.91518C11.3928 5.15583 11.6269 5.32263 11.8977 5.36123L16.354 5.99635C17.0358 6.09353 17.3081 6.9154 16.8147 7.38713L13.5901 10.4701C13.3942 10.6574 13.3048 10.9273 13.351 11.1918L14.1122 15.545C14.2287 16.2111 13.5159 16.719 12.906 16.4045L8.92018 14.3492C8.678 14.2243 8.38867 14.2243 8.14649 14.3492L4.16064 16.4045C3.55076 16.719 2.83796 16.2111 2.95444 15.545L3.71566 11.1918C3.76192 10.9273 3.67251 10.6574 3.47658 10.4701L0.251957 7.38713C-0.241445 6.9154 0.0308211 6.09353 0.712686 5.99635L5.169 5.36123C5.43977 5.32263 5.67384 5.15583 5.79493 4.91518L7.78786 0.954519Z" fill="#FFBE41"/>
</svg>
