<svg width="12" height="12" viewBox="0 0 12 12" fill="none" xmlns="http://www.w3.org/2000/svg">
<path d="M5.47584 0.812482C5.69025 0.39584 6.30975 0.395839 6.52416 0.812481L7.92543 3.53544C8.01058 3.70089 8.17516 3.81556 8.36555 3.84209L11.4989 4.27874C11.9783 4.34555 12.1698 4.91059 11.8228 5.2349L9.55553 7.35443C9.41777 7.48321 9.3549 7.66876 9.38743 7.8506L9.92266 10.8434C10.0046 11.3014 9.50337 11.6506 9.07455 11.4344L6.272 10.0213C6.10172 9.93549 5.89828 9.93549 5.728 10.0213L2.92545 11.4344C2.49663 11.6506 1.99544 11.3014 2.07734 10.8434L2.61258 7.8506C2.6451 7.66876 2.58223 7.48321 2.44447 7.35443L0.177157 5.2349C-0.169766 4.91059 0.0216711 4.34555 0.501107 4.27874L3.63445 3.84209C3.82484 3.81556 3.98942 3.70089 4.07456 3.53544L5.47584 0.812482Z" fill="#FFB800"/>
<path d="M5.47584 0.812482C5.69025 0.39584 6.30975 0.395839 6.52416 0.812481L7.92543 3.53544C8.01058 3.70089 8.17516 3.81556 8.36555 3.84209L11.4989 4.27874C11.9783 4.34555 12.1698 4.91059 11.8228 5.2349L9.55553 7.35443C9.41777 7.48321 9.3549 7.66876 9.38743 7.8506L9.92266 10.8434C10.0046 11.3014 9.50337 11.6506 9.07455 11.4344L6.272 10.0213C6.10172 9.93549 5.89828 9.93549 5.728 10.0213L2.92545 11.4344C2.49663 11.6506 1.99544 11.3014 2.07734 10.8434L2.61258 7.8506C2.6451 7.66876 2.58223 7.48321 2.44447 7.35443L0.177157 5.2349C-0.169766 4.91059 0.0216711 4.34555 0.501107 4.27874L3.63445 3.84209C3.82484 3.81556 3.98942 3.70089 4.07456 3.53544L5.47584 0.812482Z" fill="#FFB800"/>
<path d="M5.47584 0.812482C5.69025 0.39584 6.30975 0.395839 6.52416 0.812481L7.92543 3.53544C8.01058 3.70089 8.17516 3.81556 8.36555 3.84209L11.4989 4.27874C11.9783 4.34555 12.1698 4.91059 11.8228 5.2349L9.55553 7.35443C9.41777 7.48321 9.3549 7.66876 9.38743 7.8506L9.92266 10.8434C10.0046 11.3014 9.50337 11.6506 9.07455 11.4344L6.272 10.0213C6.10172 9.93549 5.89828 9.93549 5.728 10.0213L2.92545 11.4344C2.49663 11.6506 1.99544 11.3014 2.07734 10.8434L2.61258 7.8506C2.6451 7.66876 2.58223 7.48321 2.44447 7.35443L0.177157 5.2349C-0.169766 4.91059 0.0216711 4.34555 0.501107 4.27874L3.63445 3.84209C3.82484 3.81556 3.98942 3.70089 4.07456 3.53544L5.47584 0.812482Z" fill="#FFB800"/>
<path d="M5.47584 0.812482C5.69025 0.39584 6.30975 0.395839 6.52416 0.812481L7.92543 3.53544C8.01058 3.70089 8.17516 3.81556 8.36555 3.84209L11.4989 4.27874C11.9783 4.34555 12.1698 4.91059 11.8228 5.2349L9.55553 7.35443C9.41777 7.48321 9.3549 7.66876 9.38743 7.8506L9.92266 10.8434C10.0046 11.3014 9.50337 11.6506 9.07455 11.4344L6.272 10.0213C6.10172 9.93549 5.89828 9.93549 5.728 10.0213L2.92545 11.4344C2.49663 11.6506 1.99544 11.3014 2.07734 10.8434L2.61258 7.8506C2.6451 7.66876 2.58223 7.48321 2.44447 7.35443L0.177157 5.2349C-0.169766 4.91059 0.0216711 4.34555 0.501107 4.27874L3.63445 3.84209C3.82484 3.81556 3.98942 3.70089 4.07456 3.53544L5.47584 0.812482Z" fill="#FFB800"/>
<path d="M5.47584 0.812482C5.69025 0.39584 6.30975 0.395839 6.52416 0.812481L7.92543 3.53544C8.01058 3.70089 8.17516 3.81556 8.36555 3.84209L11.4989 4.27874C11.9783 4.34555 12.1698 4.91059 11.8228 5.2349L9.55553 7.35443C9.41777 7.48321 9.3549 7.66876 9.38743 7.8506L9.92266 10.8434C10.0046 11.3014 9.50337 11.6506 9.07455 11.4344L6.272 10.0213C6.10172 9.93549 5.89828 9.93549 5.728 10.0213L2.92545 11.4344C2.49663 11.6506 1.99544 11.3014 2.07734 10.8434L2.61258 7.8506C2.6451 7.66876 2.58223 7.48321 2.44447 7.35443L0.177157 5.2349C-0.169766 4.91059 0.0216711 4.34555 0.501107 4.27874L3.63445 3.84209C3.82484 3.81556 3.98942 3.70089 4.07456 3.53544L5.47584 0.812482Z" fill="#FFB800"/>
</svg>
