<svg width="91" height="28" viewBox="0 0 91 28" fill="none" xmlns="http://www.w3.org/2000/svg">
<path d="M15.4561 6.864H1.24813V4.056H6.28813V2.616H10.4161V4.056H15.4561V6.864ZM21.0481 13.632H16.9921V3H21.0481V13.632ZM8.35213 13.824C6.52813 13.824 5.02413 13.552 3.84013 13.008C2.67213 12.448 2.08813 11.64 2.08813 10.584C2.08813 9.528 2.67213 8.728 3.84013 8.184C5.02413 7.624 6.52813 7.344 8.35213 7.344C10.1761 7.344 11.6721 7.624 12.8401 8.184C14.0241 8.728 14.6161 9.528 14.6161 10.584C14.6161 11.64 14.0241 12.448 12.8401 13.008C11.6721 13.552 10.1761 13.824 8.35213 13.824ZM8.35213 9.912C7.58413 9.912 6.97613 9.968 6.52813 10.08C6.08013 10.192 5.85613 10.36 5.85613 10.584C5.85613 10.808 6.08013 10.976 6.52813 11.088C6.97613 11.2 7.58413 11.256 8.35213 11.256C9.12013 11.256 9.72813 11.2 10.1761 11.088C10.6241 10.976 10.8481 10.808 10.8481 10.584C10.8481 10.36 10.6241 10.192 10.1761 10.08C9.72813 9.968 9.12013 9.912 8.35213 9.912ZM21.2641 20.856V23.496H2.73613V17.712H17.0641V16.968H2.68813V14.352H21.0481V20.088H6.72013V20.856H21.2641ZM44.2301 3V23.496H40.4381V3H44.2301ZM35.2781 3.096H39.0221V23.136H35.2781V14.376H33.5021V22.536H24.1901V3.48H33.5021V10.536H35.2781V3.096ZM29.7581 7.152H27.9341V18.864H29.7581V7.152ZM66.26 23.496H62.204V3H66.26V23.496ZM53.492 3.24C55.492 3.24 57.06 4.056 58.196 5.688C59.348 7.304 59.924 9.744 59.924 13.008C59.924 16.272 59.348 18.72 58.196 20.352C57.06 21.968 55.492 22.776 53.492 22.776C51.492 22.776 49.916 21.968 48.764 20.352C47.612 18.72 47.036 16.272 47.036 13.008C47.036 9.744 47.612 7.304 48.764 5.688C49.916 4.056 51.492 3.24 53.492 3.24ZM53.492 6.96C51.86 6.96 51.044 8.976 51.044 13.008C51.044 17.04 51.86 19.056 53.492 19.056C55.108 19.056 55.916 17.04 55.916 13.008C55.916 10.864 55.692 9.32 55.244 8.376C54.812 7.432 54.228 6.96 53.492 6.96ZM88.8899 17.16H70.1939V3.48H88.6499V7.032H74.2019V8.64H88.3139V12H74.2019V13.608H88.8899V17.16ZM89.7779 19.056V22.776H69.0419V19.056H89.7779Z" fill="#00C271"/>
</svg>
