<svg width="90" height="22" viewBox="0 0 90 22" fill="none" xmlns="http://www.w3.org/2000/svg">
<path d="M14.9561 4.864H0.748126V2.056H5.78813V0.615999H9.91613V2.056H14.9561V4.864ZM20.5481 11.632H16.4921V0.999999H20.5481V11.632ZM7.85213 11.824C6.02813 11.824 4.52413 11.552 3.34013 11.008C2.17213 10.448 1.58813 9.64 1.58813 8.584C1.58813 7.528 2.17213 6.728 3.34013 6.184C4.52413 5.624 6.02813 5.344 7.85213 5.344C9.67613 5.344 11.1721 5.624 12.3401 6.184C13.5241 6.728 14.1161 7.528 14.1161 8.584C14.1161 9.64 13.5241 10.448 12.3401 11.008C11.1721 11.552 9.67613 11.824 7.85213 11.824ZM7.85213 7.912C7.08413 7.912 6.47613 7.968 6.02813 8.08C5.58013 8.192 5.35613 8.36 5.35613 8.584C5.35613 8.808 5.58013 8.976 6.02813 9.088C6.47613 9.2 7.08413 9.256 7.85213 9.256C8.62013 9.256 9.22813 9.2 9.67613 9.088C10.1241 8.976 10.3481 8.808 10.3481 8.584C10.3481 8.36 10.1241 8.192 9.67613 8.08C9.22813 7.968 8.62013 7.912 7.85213 7.912ZM20.7641 18.856V21.496H2.23613V15.712H16.5641V14.968H2.18813V12.352H20.5481V18.088H6.22013V18.856H20.7641ZM43.7301 0.999999V21.496H39.9381V0.999999H43.7301ZM34.7781 1.096H38.5221V21.136H34.7781V12.376H33.0021V20.536H23.6901V1.48H33.0021V8.536H34.7781V1.096ZM29.2581 5.152H27.4341V16.864H29.2581V5.152ZM65.76 21.496H61.704V0.999999H65.76V21.496ZM52.992 1.24C54.992 1.24 56.56 2.056 57.696 3.688C58.848 5.304 59.424 7.744 59.424 11.008C59.424 14.272 58.848 16.72 57.696 18.352C56.56 19.968 54.992 20.776 52.992 20.776C50.992 20.776 49.416 19.968 48.264 18.352C47.112 16.72 46.536 14.272 46.536 11.008C46.536 7.744 47.112 5.304 48.264 3.688C49.416 2.056 50.992 1.24 52.992 1.24ZM52.992 4.96C51.36 4.96 50.544 6.976 50.544 11.008C50.544 15.04 51.36 17.056 52.992 17.056C54.608 17.056 55.416 15.04 55.416 11.008C55.416 8.864 55.192 7.32 54.744 6.376C54.312 5.432 53.728 4.96 52.992 4.96ZM88.3899 15.16H69.6939V1.48H88.1499V5.032H73.7019V6.64H87.8139V10H73.7019V11.608H88.3899V15.16ZM89.2779 17.056V20.776H68.5419V17.056H89.2779Z" fill="white" fill-opacity="0.7"/>
</svg>
